<svg width="72" height="71" viewBox="0 0 72 71" fill="none" xmlns="http://www.w3.org/2000/svg">
<g clip-path="url(#clip0_158_216)">
<path fill-rule="evenodd" clip-rule="evenodd" d="M35.8927 0C16.045 0 0 16.1633 0 36.1594C0 52.1434 10.2806 65.6735 24.5424 70.4623C26.3256 70.8223 26.9787 69.6842 26.9787 68.7269C26.9787 67.8886 26.9199 65.0153 26.9199 62.0214C16.9354 64.177 14.8562 57.7109 14.8562 57.7109C13.2517 53.5202 10.8742 52.4432 10.8742 52.4432C7.60629 50.2281 11.1122 50.2281 11.1122 50.2281C14.7372 50.4676 16.6393 53.9398 16.6393 53.9398C19.8478 59.447 25.0178 57.8909 27.0977 56.9329C27.3945 54.598 28.346 52.9817 29.3562 52.0839C21.3928 51.2456 13.0144 48.1327 13.0144 34.2433C13.0144 30.2922 14.4397 27.0595 16.6981 24.5454C16.3418 23.6476 15.0936 19.9352 17.0552 14.9664C17.0552 14.9664 20.0858 14.0084 26.9192 18.6781C29.8448 17.8866 32.8619 17.484 35.8927 17.4806C38.9233 17.4806 42.0127 17.9001 44.8656 18.6781C51.6997 14.0084 54.7303 14.9664 54.7303 14.9664C56.6919 19.9352 55.4429 23.6476 55.0866 24.5454C57.4046 27.0595 58.7711 30.2922 58.7711 34.2433C58.7711 48.1327 50.3927 51.1854 42.3698 52.0839C43.6776 53.2212 44.806 55.3761 44.806 58.7887C44.806 63.6377 44.7473 67.5294 44.7473 68.7262C44.7473 69.6842 45.4011 70.8223 47.1835 70.463C61.4454 65.6728 71.726 52.1434 71.726 36.1594C71.7847 16.1633 55.681 0 35.8927 0Z" fill="white"/>
</g>
<defs>
<clipPath id="clip0_158_216">
<rect width="72" height="70.5306" fill="white"/>
</clipPath>
</defs>
</svg>
