<svg width="72" height="72" viewBox="0 0 72 72" fill="none" xmlns="http://www.w3.org/2000/svg">
<mask id="mask0_60_755" style="mask-type:luminance" maskUnits="userSpaceOnUse" x="3" y="3" width="65" height="66">
<path d="M66.75 30H36V42.75H53.7C52.05 50.85 45.15 55.5 36 55.5C25.2 55.5 16.5 46.8 16.5 36C16.5 25.2 25.2 16.5 36 16.5C40.65 16.5 44.85 18.15 48.15 20.85L57.75 11.25C51.9 6.15 44.4 3 36 3C17.7 3 3 17.7 3 36C3 54.3 17.7 69 36 69C52.5 69 67.5 57 67.5 36C67.5 34.05 67.2 31.95 66.75 30Z" fill="white"/>
</mask>
<g mask="url(#mask0_60_755)">
<path d="M0 55.5V16.5L25.5 36L0 55.5Z" fill="#FBBC05"/>
</g>
<mask id="mask1_60_755" style="mask-type:luminance" maskUnits="userSpaceOnUse" x="3" y="3" width="65" height="66">
<path d="M66.75 30H36V42.75H53.7C52.05 50.85 45.15 55.5 36 55.5C25.2 55.5 16.5 46.8 16.5 36C16.5 25.2 25.2 16.5 36 16.5C40.65 16.5 44.85 18.15 48.15 20.85L57.75 11.25C51.9 6.15 44.4 3 36 3C17.7 3 3 17.7 3 36C3 54.3 17.7 69 36 69C52.5 69 67.5 57 67.5 36C67.5 34.05 67.2 31.95 66.75 30Z" fill="white"/>
</mask>
<g mask="url(#mask1_60_755)">
<path d="M0 16.5L25.5 36L36 26.85L72 21V0H0V16.5Z" fill="#EA4335"/>
</g>
<mask id="mask2_60_755" style="mask-type:luminance" maskUnits="userSpaceOnUse" x="3" y="3" width="65" height="66">
<path d="M66.75 30H36V42.75H53.7C52.05 50.85 45.15 55.5 36 55.5C25.2 55.5 16.5 46.8 16.5 36C16.5 25.2 25.2 16.5 36 16.5C40.65 16.5 44.85 18.15 48.15 20.85L57.75 11.25C51.9 6.15 44.4 3 36 3C17.7 3 3 17.7 3 36C3 54.3 17.7 69 36 69C52.5 69 67.5 57 67.5 36C67.5 34.05 67.2 31.95 66.75 30Z" fill="white"/>
</mask>
<g mask="url(#mask2_60_755)">
<path d="M0 55.5L45 21L56.85 22.5L72 0V72H0V55.5Z" fill="#34A853"/>
</g>
<mask id="mask3_60_755" style="mask-type:luminance" maskUnits="userSpaceOnUse" x="3" y="3" width="65" height="66">
<path d="M66.75 30H36V42.75H53.7C52.05 50.85 45.15 55.5 36 55.5C25.2 55.5 16.5 46.8 16.5 36C16.5 25.2 25.2 16.5 36 16.5C40.65 16.5 44.85 18.15 48.15 20.85L57.75 11.25C51.9 6.15 44.4 3 36 3C17.7 3 3 17.7 3 36C3 54.3 17.7 69 36 69C52.5 69 67.5 57 67.5 36C67.5 34.05 67.2 31.95 66.75 30Z" fill="white"/>
</mask>
<g mask="url(#mask3_60_755)">
<path d="M72 72L25.5 36L19.5 31.5L72 16.5V72Z" fill="#4285F4"/>
</g>
</svg>
