<svg width="167" height="184" viewBox="0 0 167 184" fill="none" xmlns="http://www.w3.org/2000/svg">
<path d="M43.0144 158.252V160.413H32.6402V179H30.0467V160.413H19.6725V158.252H43.0144ZM60.737 174.245H44.3112L41.7176 179H38.6918L50.7951 158.252H54.2531L66.3563 179H63.3305L60.737 174.245ZM59.4402 172.084L52.5241 159.981L45.608 172.084H59.4402ZM90.995 158.252H94.0208L82.7821 179H79.3241L68.0854 158.252H71.1112L81.0531 177.271L90.995 158.252ZM121.699 158.252V168.626C121.699 169.851 121.681 170.967 121.645 171.976C121.618 172.984 121.514 173.889 121.334 174.691C121.163 175.492 120.888 176.19 120.51 176.785C120.132 177.379 119.592 177.874 118.889 178.271C118.187 178.658 117.291 178.946 116.201 179.135C115.12 179.333 113.788 179.432 112.203 179.432H106.124C104.539 179.432 103.202 179.333 102.112 179.135C101.032 178.946 100.14 178.658 99.4376 178.271C98.7351 177.874 98.1903 177.379 97.8031 176.785C97.4249 176.19 97.1457 175.492 96.9656 174.691C96.7945 173.889 96.6954 172.984 96.6684 171.976C96.6414 170.967 96.6279 169.851 96.6279 168.626V158.252H99.2214V168.626C99.2214 169.923 99.2304 171.039 99.2485 171.976C99.2755 172.903 99.352 173.687 99.4781 174.326C99.6042 174.966 99.8023 175.479 100.072 175.866C100.352 176.253 100.748 176.551 101.261 176.758C101.774 176.965 102.423 177.104 103.206 177.176C103.999 177.239 104.971 177.271 106.124 177.271H112.203C113.346 177.271 114.314 177.239 115.107 177.176C115.899 177.104 116.548 176.965 117.052 176.758C117.565 176.551 117.962 176.253 118.241 175.866C118.52 175.479 118.723 174.966 118.849 174.326C118.984 173.687 119.06 172.903 119.078 171.976C119.096 171.039 119.105 169.923 119.105 168.626L119.092 158.252H121.699ZM126.035 179V158.252H146.783V160.413H128.628V167.329H145.919V169.49H128.628V176.839H146.783V179H126.035Z" fill="white"/>
<path d="M52.8487 90.5808C47.1443 95.5212 43.6192 100.409 40.5158 105.586C38.7163 108.586 36.4604 110.04 33.3292 108.089C30.2494 106.172 31.1137 103.493 32.6946 100.881C42.4307 84.8054 56.0871 73.1808 73.6527 66.8083C85.8716 62.3745 97.3111 65.219 106.294 74.8689C114.934 84.1499 116.821 95.0981 112.504 107.054C111.99 108.478 111.347 109.854 110.384 112.164C119.837 109.13 126.826 103.772 133.454 97.8787C135.505 96.0556 137.377 93.9806 139.074 91.818C146.44 82.4284 147.233 84.925 138.811 75.0122C107.391 38.0314 49.2123 42.0353 22.8416 82.7735C22.4672 83.3525 22.0692 83.9175 21.7338 84.5187C20.1237 87.412 17.9332 89.3422 14.6461 87.27C11.288 85.1547 12.4959 82.3365 14.127 79.6256C19.7145 70.3306 26.9442 62.5262 35.6769 56.1537C73.5525 28.5166 127.293 38.6062 152.41 77.8512C155.132 82.1041 155.26 85.3425 152.354 89.4967C135.678 113.346 113.161 126.281 83.8383 126.482C66.693 126.599 53.294 113.341 52.8529 96.256C52.8139 94.7655 52.8473 93.2737 52.8473 90.5822L52.8487 90.5808ZM105.534 95.8107C105.522 83.7547 95.9737 74.2078 83.8773 74.1549C71.7559 74.102 62.0991 83.5765 62.0198 95.5963C61.9405 107.807 71.8742 117.825 83.9232 117.685C95.8916 117.546 105.547 107.773 105.534 95.8107Z" fill="white"/>
</svg>
