<svg width="346" height="148" viewBox="0 0 346 148" fill="none" xmlns="http://www.w3.org/2000/svg">
<g clip-path="url(#clip0_79_1176)">
<path d="M4.7873 40.6743C4.7873 40.6743 46.927 35.3937 51.6918 32.3694C56.4565 29.345 61.2042 24.8228 68.3427 23.3154C75.4813 21.808 123.402 12.754 123.402 12.754C123.402 12.754 129.516 10.8674 138.354 18.0347C147.191 25.202 166.566 48.2209 171.997 47.4719C177.436 46.7135 180.152 38.418 178.452 34.6447C176.753 30.8714 143.725 3.58632 138.012 1.80397C129.874 -0.736828 119.32 -0.461891 106.401 1.80397C93.4899 4.06983 7.16113 23.9316 7.16113 23.9316C7.16113 23.9316 -4.05051 29.7338 4.77876 40.6743H4.7873Z" fill="#121212" stroke="#1D1D1B" stroke-width="0.5" stroke-miterlimit="10"/>
<g style="mix-blend-mode:multiply">
<path d="M175.062 36.5218C175.062 36.5218 174.798 42.3524 171.664 41.8025C167.42 41.063 141.077 9.72972 132.24 11.2371C132.24 11.2371 139.523 13.8064 148.003 22.2725C153.561 27.8281 177.394 58.1565 175.062 36.5218Z" fill="#706F6F"/>
</g>
<path d="M231.889 63.9112L309.201 35.6781C309.201 35.6781 328.098 30.3405 330.847 31.8669C333.597 33.3933 345.97 60.8585 345.97 63.9112C345.97 66.964 343.903 77.1935 341.162 78.0278C339.173 78.6346 336.611 78.1321 335.322 74.0365C334.118 70.2253 329.481 43.9546 324.674 44.2011C319.866 44.4476 281.381 59.3226 281.381 59.3226C281.381 59.3226 270.041 65.4281 265.234 70.0072C260.427 74.5864 237.747 80.6919 237.747 80.6919C237.747 80.6919 229.498 73.4392 231.906 63.9018L231.889 63.9112Z" fill="#121212" stroke="#1D1D1B" stroke-width="0.5" stroke-miterlimit="10"/>
<g style="mix-blend-mode:multiply">
<path d="M237.482 64.3283C237.482 64.3283 324.81 30.9662 329.575 34C329.575 34 314.034 36.3606 293.916 45.2629C273.798 54.1652 237.482 66.1486 237.482 66.1486V64.3283Z" fill="#706F6F"/>
</g>
<g style="mix-blend-mode:multiply">
<path d="M326.304 43.4427C326.304 43.4427 329.088 43.4427 330.557 46.7135C332.025 49.9843 338.899 70.14 338.899 70.14C338.899 70.14 339.557 74.8613 343.314 67.5992C343.314 67.5992 340.692 76.6626 338.737 74.0365C336.781 71.4104 330.394 49.0741 330.394 49.0741C330.394 49.0741 327.944 42.6842 326.304 43.4427Z" fill="#706F6F"/>
</g>
<path d="M240.872 65.011C240.667 61.7781 232.7 60.0621 230.019 58.9434C227.338 57.8247 216.613 60.8016 216.613 60.8016C206.221 57.8247 170.033 52.2406 149.258 52.2406C128.483 52.2406 121.446 63.0295 119.098 62.6598C116.75 62.2901 104.352 61.9203 98.989 60.8016C93.6266 59.6829 94.6342 47.4056 65.4737 35.697C36.3217 23.998 7.16115 23.9316 7.16115 23.9316C-4.23835 28.3496 1.38882 41.4612 1.38882 41.4612L3.13931 47.4814C6.82813 49.406 5.82054 57.455 7.16115 69.3626C8.50177 81.2702 13.5312 96.5244 19.2267 105.825C24.9222 115.125 46.372 125.544 57.0969 125.914C67.8219 126.284 77.2062 124.056 84.2423 111.399C91.2784 98.7524 98.656 76.4256 98.656 76.4256L107.366 77.9141C107.366 77.9141 109.851 78.2079 111.934 80.8435C114.018 83.4791 115.717 88.4565 118.424 97.2544C124.879 118.207 139.874 134.466 139.874 134.466C139.874 134.466 144.655 141.51 168.428 146.468C188.136 150.583 204.889 144.136 204.889 144.136C220.02 137.338 223.359 101.511 223.359 101.511C223.359 101.511 224.921 88.902 230.028 85.726C236.321 81.8011 237.089 81.5167 240.881 80.6824C243.963 80.0093 241.086 68.2344 240.881 65.0015L240.872 65.011ZM74.5249 112.897C66.4812 117.732 47.0466 119.591 34.9811 109.181C22.9155 98.7618 17.22 80.5307 15.5464 58.9529C13.8728 37.3751 21.6091 35.0334 21.6091 35.0334C21.6091 35.0334 34.315 34.3982 50.7354 38.8541C67.1558 43.3194 85.2499 55.9665 85.5914 64.1577C85.9244 72.3395 82.5772 108.062 74.5335 112.897H74.5249ZM206.221 135.964C198.51 140.059 187.888 140.429 178.956 139.68C170.025 138.941 146.901 138.192 138.524 109.911C138.524 109.911 136.176 96.5149 134.17 93.538C132.163 90.5611 126.126 79.8102 126.126 76.0653C126.126 68.2628 132.231 63.769 132.231 63.769C132.231 63.769 139.199 58.9339 148.242 58.9339C157.293 58.9339 203.531 61.5411 209.901 71.2113C216.272 80.8815 215.93 92.0496 216.938 100.98C217.945 109.911 213.923 131.859 206.213 135.954L206.221 135.964Z" fill="#74E23F" stroke="#1D1D1B" stroke-width="0.5" stroke-miterlimit="10"/>
<g style="mix-blend-mode:multiply">
<path d="M23.8635 35.0618C23.8635 35.0618 14.2059 32.0755 12.1907 44.2106C10.1841 56.3457 10.8843 73.2307 16.8786 91.6893C22.873 110.148 39.6691 116.775 39.6691 116.775C39.6691 116.775 53.2887 122.425 65.8068 119.96C72.1769 118.709 75.3107 115.286 77.1636 109.996C77.1636 109.996 64.8761 125.582 36.5609 110.423C31.4375 107.683 27.5096 101.426 24.4014 95.3299C18.39 83.555 15.7429 69.0971 15.538 58.9434C15.0001 32.0565 23.855 35.0524 23.855 35.0524L23.8635 35.0618Z" fill="#706F6F"/>
</g>
<g style="mix-blend-mode:multiply">
<path d="M132.24 61.5506C132.24 61.5506 122.112 65.2386 123.12 80.6919C124.128 96.1452 133.512 114.983 136.193 120.634C138.874 126.284 149.599 136.95 158.642 139.993C167.685 143.036 193.233 143.501 203.25 137.31C203.25 137.31 175.225 144.629 153.732 132.333C153.732 132.333 142.333 125.507 139.096 111.684C139.096 111.684 136.526 99.0747 134.793 94.7232C132.009 87.7644 128.491 86.0863 126.143 76.0749C124.136 67.5139 132.248 61.5411 132.248 61.5411L132.24 61.5506Z" fill="#706F6F"/>
</g>
<g style="mix-blend-mode:multiply">
<path d="M128.474 92.4383C128.474 92.4383 129.14 99.1316 135.51 108.442L128.474 92.4383Z" fill="#706F6F"/>
</g>
<g style="mix-blend-mode:multiply">
<path d="M115.239 68.2818C115.239 68.2818 109.389 76.8522 111.9 77.8572C114.41 78.8621 115.239 68.2818 115.239 68.2818Z" fill="#706F6F"/>
</g>
<g style="mix-blend-mode:multiply">
<path d="M91.8422 65.1248C91.8422 65.1248 94.0111 77.0229 95.1809 76.0844C96.3507 75.1458 91.8422 65.1248 91.8422 65.1248Z" fill="#706F6F"/>
</g>
<g style="mix-blend-mode:multiply">
<path d="M79.6484 113.912C79.6484 113.912 88.7253 100.743 95.3772 78.663C95.3772 78.663 83.5934 106.384 79.6484 113.912Z" fill="#706F6F"/>
</g>
<g style="mix-blend-mode:multiply">
<path d="M95.3772 64.3853C95.3772 64.3853 111.055 67.7225 115.23 66.4236L119.244 64.3853C119.244 64.3853 113.565 65.9875 110.218 65.5514C106.871 65.1153 95.3772 64.3853 95.3772 64.3853Z" fill="#706F6F"/>
</g>
<g style="mix-blend-mode:multiply">
<path d="M229.686 71.7991C229.686 71.7991 230.702 68.6421 231.445 71.7991C232.188 74.9562 231.445 82.0002 231.445 82.0002C231.445 82.0002 230.019 83.6688 229.686 82.0002C229.353 80.3316 229.686 71.7991 229.686 71.7991Z" fill="#706F6F"/>
</g>
<g style="mix-blend-mode:multiply">
<path d="M236.202 66.1486C236.202 66.1486 231.727 68.4619 229.541 68.2723C227.355 68.0827 212.258 63.7595 178.444 57.3412C178.444 57.3412 204.898 60.7352 229.541 66.7175C232.299 67.3906 236.202 66.1486 236.202 66.1486Z" fill="#706F6F"/>
</g>
<g style="mix-blend-mode:multiply">
<path d="M91.842 61.5506C91.842 61.5506 87.3334 48.4295 74.303 42.305C67.5743 39.148 60.7175 36.5313 54.9622 34.6068C49.5656 32.8055 45.151 31.6204 42.7259 31.1748C37.7136 30.2457 20.0038 26.7189 18.1679 26.9085C16.332 27.0982 12.6517 27.5532 9.14224 27.6954C5.63273 27.8376 4.46289 27.6954 4.46289 27.6954C4.46289 27.6954 8.02363 29.601 13.8216 28.5771C18.3643 27.7808 28.6879 29.5062 28.6879 29.5062C28.6879 29.5062 75.635 34.237 91.842 61.5506Z" fill="#706F6F"/>
</g>
<path opacity="0.75" d="M11.1829 47.9934C10.4315 53.7291 11.5245 83.4602 20.9515 100.43C30.3785 117.401 52.5798 120.671 56.2771 120.634C59.9745 120.596 72.0827 121.601 77.172 111.845C81.4158 103.701 88.4178 70.6235 84.9595 61.5506C79.6141 47.5004 50.4621 38.7783 50.4621 38.7783C50.4621 38.7783 27.535 33.6019 21.5834 34.5499C21.5834 34.5499 13.07 33.6398 11.1915 47.9839L11.1829 47.9934Z" fill="#26481A"/>
<path opacity="0.75" d="M123.043 76.1317C123.043 76.1317 122.112 67.0778 139.754 60.3087C149.796 56.4595 191.38 63.3709 191.38 63.3709C191.38 63.3709 207.681 67.22 209.918 71.2208C212.156 75.2216 217.996 87.5653 216.997 107.219C216.024 126.379 210.755 132.627 206.23 135.954C206.23 135.954 200.167 140.628 188.007 141.576C165.251 143.359 156.405 140.495 148.566 134.248C123.052 113.902 123.052 76.1317 123.052 76.1317H123.043Z" fill="#26481A"/>
<path d="M200.295 73.098C200.295 73.098 208.732 74.1598 209.466 83.3275C209.466 83.3275 205.427 74.2736 200.295 73.098Z" fill="white"/>
</g>
<defs>
<clipPath id="clip0_79_1176">
<rect width="346" height="148" fill="white"/>
</clipPath>
</defs>
</svg>
