<svg width="64" height="64" viewBox="0 0 64 64" fill="none" xmlns="http://www.w3.org/2000/svg">
<path d="M15.5307 9.68533L32.0001 26.1547L48.3841 9.77066C48.746 9.38545 49.1819 9.0773 49.6658 8.86468C50.1497 8.65207 50.6716 8.53936 51.2001 8.53333C52.3317 8.53333 53.4169 8.98285 54.2171 9.783C55.0172 10.5832 55.4667 11.6684 55.4667 12.8C55.4767 13.3231 55.3796 13.8427 55.1815 14.327C54.9834 14.8112 54.6885 15.2498 54.3147 15.616L37.7174 32L54.3147 48.5973C55.018 49.2853 55.4303 50.2169 55.4667 51.2C55.4667 52.3316 55.0172 53.4168 54.2171 54.217C53.4169 55.0171 52.3317 55.4667 51.2001 55.4667C50.6563 55.4892 50.1138 55.3985 49.607 55.2001C49.1002 55.0018 48.6401 54.7003 48.2561 54.3147L32.0001 37.8453L15.5734 54.272C15.2129 54.6444 14.7822 54.9416 14.3062 55.1467C13.8302 55.3517 13.3183 55.4605 12.8001 55.4667C11.6685 55.4667 10.5832 55.0171 9.78309 54.217C8.98293 53.4168 8.53341 52.3316 8.53341 51.2C8.52346 50.6769 8.62051 50.1573 8.81861 49.673C9.01671 49.1888 9.31168 48.7501 9.68541 48.384L26.2827 32L9.68541 15.4027C8.9822 14.7147 8.56984 13.7831 8.53341 12.8C8.53341 11.6684 8.98293 10.5832 9.78309 9.783C10.5832 8.98285 11.6685 8.53333 12.8001 8.53333C13.8241 8.54613 14.8054 8.95999 15.5307 9.68533Z" fill="black"/>
</svg>
