<svg width="1079" height="915" viewBox="0 0 1079 915" fill="none" xmlns="http://www.w3.org/2000/svg">
<path d="M341.459 421.25C304.602 453.17 281.826 484.749 261.774 518.198C250.148 537.584 235.573 546.98 215.341 534.374C195.443 521.983 201.027 504.674 211.241 487.797C274.147 383.934 362.382 308.827 475.875 267.654C554.822 239.006 628.733 257.385 686.775 319.734C742.595 379.699 754.787 450.436 726.895 527.684C723.577 536.882 719.423 545.775 713.201 560.701C774.272 541.099 819.429 506.482 862.256 468.402C875.51 456.623 887.603 443.216 898.564 429.243C946.157 368.576 951.282 384.707 896.865 320.66C693.86 81.7242 317.963 107.593 147.58 370.806C145.161 374.547 142.59 378.197 140.423 382.082C130.019 400.776 115.867 413.247 94.6283 399.858C72.9314 386.191 80.7362 367.983 91.2744 350.467C127.376 290.412 174.088 239.987 230.51 198.814C475.228 20.2482 822.45 85.4378 984.731 339.003C1002.32 366.481 1003.15 387.405 984.372 414.245C876.625 568.335 731.139 651.913 541.685 653.208C430.908 653.963 344.336 568.308 341.486 457.918C341.234 448.287 341.45 438.648 341.45 421.259L341.459 421.25ZM681.865 455.04C681.784 377.145 620.092 315.463 541.937 315.121C463.619 314.779 401.226 375.994 400.714 453.656C400.201 532.548 464.384 597.279 542.233 596.371C619.562 595.472 681.946 532.333 681.865 455.04Z" fill="#002395"/>
</svg>
