<svg width="355" height="152" viewBox="0 0 355 152" fill="none" xmlns="http://www.w3.org/2000/svg">
<g clip-path="url(#clip0_25_669)">
<path d="M4.91182 41.7736C4.91182 41.7736 48.1477 36.3502 53.0363 33.2442C57.925 30.1382 62.7962 25.4937 70.1204 23.9455C77.4447 22.3974 126.612 13.0987 126.612 13.0987C126.612 13.0987 132.885 11.1611 141.952 18.5221C151.02 25.8832 170.899 49.5241 176.471 48.7549C182.052 47.976 184.838 39.4563 183.094 35.581C181.351 31.7058 147.463 3.68324 141.602 1.85272C133.253 -0.756742 122.424 -0.474375 109.168 1.85272C95.9217 4.17982 7.34739 24.5784 7.34739 24.5784C7.34739 24.5784 -4.15588 30.5374 4.90306 41.7736H4.91182Z" fill="#DADADA" stroke="#1D1D1B" stroke-width="0.5" stroke-miterlimit="10"/>
<g style="mix-blend-mode:multiply">
<path d="M179.616 37.5089C179.616 37.5089 179.345 43.4971 176.129 42.9323C171.775 42.1729 144.747 9.99271 135.679 11.5409C135.679 11.5409 143.153 14.1795 151.852 22.8745C157.556 28.5803 182.008 59.7283 179.616 37.5089Z" fill="#706F6F"/>
</g>
<path d="M237.921 65.6386L317.244 36.6423C317.244 36.6423 336.632 31.1605 339.453 32.7282C342.274 34.2958 354.969 62.5033 354.969 65.6386C354.969 68.7738 352.849 79.2798 350.036 80.1367C347.995 80.7598 345.367 80.2438 344.044 76.0375C342.809 72.1233 338.051 45.1426 333.119 45.3957C328.186 45.6489 288.7 60.9259 288.7 60.9259C288.7 60.9259 277.066 67.1965 272.133 71.8993C267.201 76.6022 243.931 82.8727 243.931 82.8727C243.931 82.8727 235.468 75.4241 237.939 65.6288L237.921 65.6386Z" fill="#DADADA" stroke="#1D1D1B" stroke-width="0.5" stroke-miterlimit="10"/>
<g style="mix-blend-mode:multiply">
<path d="M243.66 66.067C243.66 66.067 333.259 31.8031 338.148 34.9189C338.148 34.9189 322.203 37.3434 301.561 46.4862C280.92 55.6291 243.66 67.9364 243.66 67.9364V66.067Z" fill="#706F6F"/>
</g>
<g style="mix-blend-mode:multiply">
<path d="M334.792 44.6168C334.792 44.6168 337.648 44.6168 339.155 47.976C340.662 51.3352 347.714 72.0356 347.714 72.0356C347.714 72.0356 348.389 76.8846 352.244 69.4262C352.244 69.4262 349.554 78.7346 347.548 76.0375C345.542 73.3404 338.988 50.4004 338.988 50.4004C338.988 50.4004 336.474 43.8378 334.792 44.6168Z" fill="#706F6F"/>
</g>
<path d="M247.138 66.768C246.927 63.4478 238.753 61.6854 236.002 60.5365C233.251 59.3875 222.248 62.4449 222.248 62.4449C211.585 59.3875 174.456 53.6525 153.14 53.6525C131.825 53.6525 124.605 64.733 122.196 64.3533C119.787 63.9736 107.066 63.5938 101.564 62.4449C96.0619 61.2959 97.0957 48.6868 67.1767 36.6618C37.2665 24.6466 7.34742 24.5784 7.34742 24.5784C-4.34859 29.1158 1.42495 42.5818 1.42495 42.5818L3.22097 48.7647C7.00574 50.7412 5.97194 59.0078 7.34742 71.2372C8.72291 83.4667 13.8832 99.1332 19.7268 108.685C25.5704 118.237 47.5782 128.938 58.5821 129.317C69.586 129.697 79.2144 127.409 86.4335 114.41C93.6526 101.421 101.222 78.4911 101.222 78.4911L110.158 80.0198C110.158 80.0198 112.708 80.3217 114.846 83.0285C116.983 85.7353 118.727 90.8472 121.504 99.8829C128.127 121.401 143.512 138.1 143.512 138.1C143.512 138.1 148.418 145.334 172.809 150.427C193.029 154.652 210.219 148.031 210.219 148.031C225.743 141.05 229.169 104.255 229.169 104.255C229.169 104.255 230.772 91.3048 236.011 88.043C242.468 84.0119 243.257 83.7198 247.146 82.863C250.309 82.1717 247.357 70.0785 247.146 66.7583L247.138 66.768ZM76.4634 115.949C68.2105 120.914 48.2703 122.823 35.891 112.132C23.5116 101.431 17.668 82.7072 15.9508 60.5462C14.2336 38.3852 22.1711 35.9802 22.1711 35.9802C22.1711 35.9802 35.2076 35.3279 52.0551 39.9042C68.9026 44.4902 87.4673 57.4791 87.8178 65.8917C88.1595 74.2946 84.7251 110.983 76.4722 115.949H76.4634ZM211.585 139.638C203.674 143.845 192.775 144.224 183.611 143.455C174.447 142.696 150.722 141.926 142.128 112.882C142.128 112.882 139.718 99.1234 137.659 96.0661C135.601 93.0087 129.407 81.9672 129.407 78.1211C129.407 70.1078 135.671 65.4925 135.671 65.4925C135.671 65.4925 142.82 60.5267 152.098 60.5267C161.384 60.5267 208.826 63.2044 215.361 73.1359C221.897 83.0674 221.547 94.5374 222.58 103.709C223.614 112.882 219.488 135.422 211.577 139.629L211.585 139.638Z" fill="#B2B2B2" stroke="#1D1D1B" stroke-width="0.5" stroke-miterlimit="10"/>
<g style="mix-blend-mode:multiply">
<path d="M24.4842 36.0094C24.4842 36.0094 14.5755 32.9423 12.5079 45.4055C10.449 57.8686 11.1674 75.2098 17.3177 94.1674C23.4679 113.125 40.701 119.931 40.701 119.931C40.701 119.931 54.6748 125.734 67.5186 123.203C74.0543 121.917 77.2696 118.402 79.1708 112.969C79.1708 112.969 66.5636 128.977 37.5119 113.407C32.2553 110.593 28.2252 104.167 25.0362 97.9063C18.8684 85.8132 16.1525 70.9646 15.9422 60.5365C15.3902 32.9229 24.4755 35.9997 24.4755 35.9997L24.4842 36.0094Z" fill="#706F6F"/>
</g>
<g style="mix-blend-mode:multiply">
<path d="M135.68 63.2141C135.68 63.2141 125.289 67.0017 126.323 82.8727C127.356 98.7437 136.985 118.091 139.736 123.894C142.487 129.697 153.491 140.651 162.769 143.776C172.047 146.902 198.26 147.379 208.537 141.021C208.537 141.021 179.783 148.538 157.731 135.909C157.731 135.909 146.035 128.899 142.715 114.702C142.715 114.702 140.078 101.752 138.299 97.2832C135.443 90.1364 131.833 88.413 129.424 78.1309C127.365 69.3386 135.688 63.2044 135.688 63.2044L135.68 63.2141Z" fill="#706F6F"/>
</g>
<g style="mix-blend-mode:multiply">
<path d="M131.816 94.9366C131.816 94.9366 132.499 101.811 139.035 111.372L131.816 94.9366Z" fill="#706F6F"/>
</g>
<g style="mix-blend-mode:multiply">
<path d="M118.236 70.1273C118.236 70.1273 112.235 78.9293 114.811 79.9614C117.386 80.9935 118.236 70.1273 118.236 70.1273Z" fill="#706F6F"/>
</g>
<g style="mix-blend-mode:multiply">
<path d="M94.2311 66.8849C94.2311 66.8849 96.4564 79.1046 97.6567 78.1407C98.8569 77.1767 94.2311 66.8849 94.2311 66.8849Z" fill="#706F6F"/>
</g>
<g style="mix-blend-mode:multiply">
<path d="M81.7202 116.991C81.7202 116.991 91.0332 103.466 97.8581 80.7891C97.8581 80.7891 85.7678 109.259 81.7202 116.991Z" fill="#706F6F"/>
</g>
<g style="mix-blend-mode:multiply">
<path d="M97.8581 66.1254C97.8581 66.1254 113.943 69.5528 118.228 68.2188L122.345 66.1254C122.345 66.1254 116.519 67.7709 113.085 67.3231C109.65 66.8752 97.8581 66.1254 97.8581 66.1254Z" fill="#706F6F"/>
</g>
<g style="mix-blend-mode:multiply">
<path d="M235.661 73.7396C235.661 73.7396 236.703 70.4972 237.466 73.7396C238.228 76.982 237.466 84.2164 237.466 84.2164C237.466 84.2164 236.002 85.9301 235.661 84.2164C235.319 82.5027 235.661 73.7396 235.661 73.7396Z" fill="#706F6F"/>
</g>
<g style="mix-blend-mode:multiply">
<path d="M242.345 67.9364C242.345 67.9364 237.755 70.3122 235.512 70.1175C233.269 69.9227 217.779 65.4827 183.086 58.8909C183.086 58.8909 210.227 62.3767 235.512 68.5206C238.342 69.212 242.345 67.9364 242.345 67.9364Z" fill="#706F6F"/>
</g>
<g style="mix-blend-mode:multiply">
<path d="M94.2309 63.2141C94.2309 63.2141 89.6051 49.7384 76.2357 43.4484C69.332 40.206 62.2969 37.5187 56.3919 35.5421C50.8549 33.6921 46.3254 32.475 43.8373 32.0174C38.6946 31.0632 20.5241 27.4411 18.6405 27.6358C16.7569 27.8305 12.9808 28.2979 9.38004 28.444C5.77924 28.59 4.57898 28.444 4.57898 28.444C4.57898 28.444 8.23234 30.4011 14.1811 29.3495C18.842 28.5316 29.4341 30.3037 29.4341 30.3037C29.4341 30.3037 77.6024 35.1624 94.2309 63.2141Z" fill="#706F6F"/>
</g>
<path opacity="0.75" d="M11.4738 49.2905C10.7029 55.1813 11.8243 85.7159 21.4965 103.145C31.1687 120.574 53.9475 123.933 57.741 123.894C61.5345 123.855 73.9577 124.887 79.1793 114.868C83.5336 106.504 90.7177 72.5323 87.1694 63.2141C81.685 48.7842 51.7747 39.8263 51.7747 39.8263C51.7747 39.8263 28.2513 34.51 22.1448 35.4837C22.1448 35.4837 13.41 34.549 11.4826 49.2808L11.4738 49.2905Z" fill="#1D1D1B"/>
<path opacity="0.75" d="M126.244 78.1893C126.244 78.1893 125.289 68.8907 143.389 61.9386C153.692 57.9855 196.358 65.0836 196.358 65.0836C196.358 65.0836 213.083 69.0367 215.379 73.1457C217.674 77.2546 223.667 89.9319 222.642 110.116C221.643 129.794 216.237 136.211 211.594 139.629C211.594 139.629 205.374 144.429 192.898 145.403C169.55 147.233 160.473 144.293 152.431 137.876C126.252 116.981 126.252 78.1893 126.252 78.1893H126.244Z" fill="#1D1D1B"/>
<path d="M205.505 75.0735C205.505 75.0735 214.161 76.1641 214.915 85.5796C214.915 85.5796 210.771 76.2809 205.505 75.0735Z" fill="white"/>
</g>
<defs>
<clipPath id="clip0_25_669">
<rect width="355" height="152" fill="white"/>
</clipPath>
</defs>
</svg>
