<svg width="100" height="100" viewBox="0 0 100 100" fill="none" xmlns="http://www.w3.org/2000/svg">
<path fill-rule="evenodd" clip-rule="evenodd" d="M50.3333 87.1667L53.2833 90.1083C52.8962 90.497 52.4361 90.8054 51.9296 91.0158C51.423 91.2262 50.8798 91.3345 50.3312 91.3345C49.7827 91.3345 49.2395 91.2262 48.7329 91.0158C48.2263 90.8054 47.7663 90.497 47.3792 90.1083L47.3542 90.0792L47.2833 90.0083L47.025 89.7458C45.5562 88.2328 44.1116 86.6965 42.6917 85.1375C39.1267 81.2311 35.713 77.1893 32.4583 73.0208C28.7417 68.2292 24.9417 62.8125 22.0542 57.4625C19.2292 52.2167 17 46.5333 17 41.3333C17 22.4208 31.9667 8 50.3333 8C68.7 8 83.6667 22.4208 83.6667 41.3333C83.6667 46.5333 81.4375 52.2167 78.6125 57.4583C75.725 62.8167 71.9292 68.2292 68.2083 73.0208C63.6558 78.8526 58.7932 84.4357 53.6417 89.7458L53.3833 90.0083L53.3125 90.0792L53.2875 90.1042L50.3333 87.1667ZM50.3333 53.8333C53.6485 53.8333 56.828 52.5164 59.1722 50.1722C61.5164 47.828 62.8333 44.6485 62.8333 41.3333C62.8333 38.0181 61.5164 34.8387 59.1722 32.4945C56.828 30.1503 53.6485 28.8333 50.3333 28.8333C47.0181 28.8333 43.8387 30.1503 41.4945 32.4945C39.1503 34.8387 37.8333 38.0181 37.8333 41.3333C37.8333 44.6485 39.1503 47.828 41.4945 50.1722C43.8387 52.5164 47.0181 53.8333 50.3333 53.8333Z" fill="#FF0000"/>
</svg>
